<?xml version="1.0" encoding="UTF-8" standalone="no"?>
<svg
   xmlns:dc="http://purl.org/dc/elements/1.1/"
   xmlns:cc="http://creativecommons.org/ns#"
   xmlns:rdf="http://www.w3.org/1999/02/22-rdf-syntax-ns#"
   xmlns:svg="http://www.w3.org/2000/svg"
   xmlns="http://www.w3.org/2000/svg"
   xmlns:sodipodi="http://sodipodi.sourceforge.net/DTD/sodipodi-0.dtd"
   xmlns:inkscape="http://www.inkscape.org/namespaces/inkscape"
   height="512px"
   style="enable-background:new 0 0 512 512;"
   version="1.1"
   viewBox="0 0 512 512"
   width="512px"
   xml:space="preserve"
   id="svg92"
   sodipodi:docname="gun-right-redpool.svg"
   inkscape:version="0.92.5 (2060ec1f9f, 2020-04-08)"><metadata
     id="metadata98"><rdf:RDF><cc:Work
         rdf:about=""><dc:format>image/svg+xml</dc:format><dc:type
           rdf:resource="http://purl.org/dc/dcmitype/StillImage" /><dc:title></dc:title></cc:Work></rdf:RDF></metadata><defs
     id="defs96" /><sodipodi:namedview
     pagecolor="#ffffff"
     bordercolor="#666666"
     borderopacity="1"
     objecttolerance="10"
     gridtolerance="10"
     guidetolerance="10"
     inkscape:pageopacity="0"
     inkscape:pageshadow="2"
     inkscape:window-width="1294"
     inkscape:window-height="704"
     id="namedview94"
     showgrid="false"
     inkscape:zoom="0.4609375"
     inkscape:cx="256"
     inkscape:cy="342.77966"
     inkscape:window-x="72"
     inkscape:window-y="27"
     inkscape:window-maximized="1"
     inkscape:current-layer="svg92" /><g
     id="Layer_1" /><g
     style="fill:#800000"
     id="g3826"
     transform="matrix(-1,0,0,1,517.44097,0.32886436)"><g
       style="fill:#800000"
       id="g3824"><path
         id="path3822"
         style="fill:#800000"
         d="m 423.549,208.108 c -0.483,-0.062 -1.101,-0.133 -1.863,-0.133 -4.557,-0.278 -14.017,-0.763 -19.193,-17.75 l -0.063,-0.062 -3.595,-5.664 c -0.277,-1.174 -0.621,-2.353 -1.036,-3.518 0,-0.069 0,-0.069 0,-0.069 l 0.205,0.344 c 0,0 -0.205,-0.619 -0.272,-1.661 0.067,-0.967 0.34,-2.207 1.309,-3.587 2.899,-3.797 3.592,-6.838 3.524,-8.983 0.138,-4.414 -3.247,-6.763 -5.806,-6.484 -0.061,0 -0.135,-0.071 -0.206,-0.071 -0.688,0 -1.242,0.137 -1.796,0.416 -2.828,1.447 -6.691,2.145 -7.866,2.349 -0.76,-0.902 -1.451,-1.727 -2.144,-2.486 l -5.521,-8.29 h -1.451 c -0.139,-0.204 -0.276,-0.34 -0.276,-0.34 l -0.206,-0.278 h -10.979 c -1.036,-2.071 -2.005,-4.281 -2.349,-4.97 -0.685,-1.448 -4.489,-1.038 -5.589,0 -0.49,0.552 -1.451,2.759 -2.349,4.97 h -75.884 -1.1 c -1.313,0 -3.666,0 -3.666,2.489 v 0.755 h -154.24 c -0.075,-2.895 -0.348,-4.696 -2.626,-4.696 h -3.453 l -2.757,-5.518 c -7.53,0 -11.88,4.002 -13.261,5.518 h -0.554 c -0.28,0 -0.692,0.075 -1.107,0.556 -0.763,0.688 -1.175,2.278 -1.519,4.141 h -7.388 c -2.417,0 -3.726,5.8 -3.726,11.529 0,5.664 1.309,11.463 3.726,11.463 h 6.973 v 14.086 h 0.625 v 8.489 c 0,3.46 0,6.979 2.072,9.049 1.033,1.032 2.551,1.59 4.556,1.59 h 18.917 c 0.138,2.065 0.554,3.451 1.242,4.21 0.067,0.071 0.139,0.071 0.209,0.137 0,0 0,0 0.063,0 l 0.209,0.208 h 0.071 c 0.277,0.137 0.554,0.273 0.901,0.273 h 58.272 13.668 c 0.071,0 0.071,0 0.135,0 0.348,0 0.692,0 1.107,0 5.458,0.142 14.57,1.524 21.614,7.871 3.176,2.833 5.66,6.494 7.384,10.771 3.112,7.186 2.903,12.849 2.697,18.301 -0.071,0.623 -0.071,1.24 -0.071,1.867 -0.202,6.423 0.416,7.866 7.598,10.145 0.617,0.206 1.373,0.486 2.207,0.763 8.147,2.626 23.267,7.459 31.759,7.459 h 10.84 c 2.555,0 6.629,-1.036 10.908,-2.144 4.496,-1.174 9.116,-2.345 12.086,-2.345 1.451,0 2.761,0.139 4.007,0.411 6.213,1.246 10.286,5.937 12.015,13.945 0.617,2.761 1.657,6.427 2.828,10.571 4.351,15.393 10.911,38.593 7.53,55.924 -0.49,2.068 -0.214,3.796 0.89,5.177 0.482,0.621 1.111,1.179 1.935,1.661 0,1.305 0,3.587 0,5.248 0,2.479 1.862,5.383 10.979,5.383 9.19,0 49.164,-2.487 52.546,-2.487 2.555,0 2.21,-3.797 1.934,-5.521 0.415,0 0.76,0 1.171,0 0.419,1.862 1.87,6.423 7.186,6.423 5.319,0 7.253,-4.561 7.8,-6.494 0.486,0 0.759,0 0.826,0 h 0.834 v -1.455 c 0.479,0.071 1.097,0.143 1.725,0.143 v 0 c 2.484,0 3.314,-1.033 3.588,-1.935 0,-0.206 5.457,-20.364 -2.068,-37.972 -7.04,-16.437 -18.711,-49.44 -23.96,-67.944 -2.551,-8.837 -1.59,-17.052 2.761,-22.985 3.936,-5.461 10.354,-8.639 18.09,-8.983 8.354,0.208 9.662,-3.378 9.805,-4.904 0.2,-2.209 -1.379,-4.487 -3.387,-4.906 z m -30.584,-40.936 v 0 c 0.134,-1.246 1.241,-2.278 2.555,-2.278 1.38,0 2.551,1.169 2.551,2.623 0,1.311 -0.961,2.343 -2.274,2.551 -1.524,-0.209 -2.698,-1.38 -2.832,-2.896 z m 6.284,0 v 0 c -0.139,-1.797 -1.59,-3.316 -3.453,-3.453 0.139,0 0.202,0 0.345,0 1.728,0 3.176,1.373 3.176,3.174 -0.001,0.071 -0.068,0.208 -0.068,0.279 z M 235.47,239.25 v 0 -1.169 c 0,-6.834 6.142,-11.808 11.394,-13.945 2.555,-1.107 5.173,-1.659 7.526,-1.659 H 276 c 1.313,4.485 6.004,26.163 -16.709,34.315 0,0 -4.422,2.207 2.487,1.792 6.905,-0.48 20.024,-11.944 19.743,-18.438 l 2.693,-1.857 1.104,-11.742 c 0,0 4.007,-2.48 5.387,-4.07 9.879,0.137 17.401,4.21 20.645,11.323 3.247,7.18 1.448,16.362 -4.627,23.336 -0.273,0.272 -0.617,0.619 -0.961,0.967 -6.079,6.144 -16.646,9.525 -29.694,9.525 -9.112,0 -18.92,-1.725 -26.237,-4.488 -14.432,-5.593 -14.361,-14.913 -14.361,-23.89 z m 152.31,-74.983 v 0 l 0.074,0.137 c 0,-0.066 -0.074,-0.066 -0.074,-0.137 z m 19.96,197.612 v 0 c -2.282,0 -2.971,-1.938 -3.104,-2.761 2.479,0 4.69,0 6.482,0 -0.273,0.823 -1.099,2.761 -3.378,2.761 z"
         inkscape:connector-curvature="0" /></g></g></svg>